<svg width="42" height="42" viewBox="0 0 42 42" fill="none" xmlns="http://www.w3.org/2000/svg">
<path fill-rule="evenodd" clip-rule="evenodd" d="M1.02397 25.6411C2.77318 33.1112 9.07201 39.5606 16.3734 41.3576C18.3989 41.8566 18.5239 41.728 18.5239 39.169C18.5239 36.7644 18.2416 36.3933 16.0739 35.949C12.8788 35.295 6.94571 29.2196 6.30707 25.9478C5.87314 23.7283 5.51112 23.439 3.16252 23.439C0.663517 23.4393 0.538237 23.5682 1.02397 25.6411Z" fill="#FC6075"/>
<path fill-rule="evenodd" clip-rule="evenodd" d="M9.16974 24.7205C10.7946 29.0964 14.9392 33.0315 17.9374 33.0427C20.227 33.0514 19.5045 30.3259 16.9041 29.1478C15.5427 28.5305 13.9555 26.885 13.2409 25.3494C12.3485 23.4348 11.4524 22.6387 10.188 22.6387C8.58259 22.6384 8.47709 22.8538 9.16974 24.7205Z" fill="#FC6075"/>
<path fill-rule="evenodd" clip-rule="evenodd" d="M15.0777 22.8396C16.2608 24.969 18.0319 26.6432 19.1023 26.6432C19.8282 26.6432 19.4433 25.8008 18.0059 24.2408C15.7706 21.8156 14.0519 20.9931 15.0777 22.8396Z" fill="#FC6075"/>
<path fill-rule="evenodd" clip-rule="evenodd" d="M21.6517 15.7977C21.6517 16.2719 25.5247 20.2379 25.9878 20.2379C27.0613 20.2379 26.0942 17.7474 24.6053 16.6803C22.8957 15.4533 21.6517 15.082 21.6517 15.7977Z" fill="#FC6075"/>
<path fill-rule="evenodd" clip-rule="evenodd" d="M16.1785 17.6149C13.997 20.4552 15.4288 20.9308 18.0568 18.2393C20.3862 15.8546 20.5231 15.4321 18.9717 15.4321C18.3573 15.4321 17.1004 16.4147 16.1785 17.6149Z" fill="#FF733B"/>
<path fill-rule="evenodd" clip-rule="evenodd" d="M22.4381 10.4285C22.4412 11.1995 23.5069 12.4495 24.8074 13.207C26.1082 13.9652 27.7767 15.6741 28.5171 17.0058C29.8481 19.4018 32.6014 20.3676 32.5961 18.4359C32.5904 16.5158 29.4663 12.2036 26.9368 10.6246C23.792 8.66042 22.4321 8.60094 22.4381 10.4285Z" fill="#FC6075"/>
<path fill-rule="evenodd" clip-rule="evenodd" d="M15.7438 9.79533C13.4433 10.7499 9.14014 16.0068 9.14014 17.8639C9.14014 20.2971 11.6919 19.7608 13.2219 17.0064C13.9623 15.6746 15.6311 13.9658 16.9316 13.2076C18.2322 12.4501 19.2978 11.2001 19.301 10.429C19.3057 8.92015 18.2899 8.73914 15.7438 9.79533Z" fill="#FF733B"/>
<path fill-rule="evenodd" clip-rule="evenodd" d="M23.2156 2.93963C23.2156 5.37547 23.4995 5.7584 25.6682 6.24582C28.8297 6.9567 34.6189 12.8849 35.3131 16.1223C35.7888 18.3395 36.1646 18.6333 38.5261 18.6333C39.9981 18.6333 41.2016 18.4668 41.2016 18.2633C41.2016 18.0591 40.5001 15.9724 39.6423 13.6263C37.3716 7.41037 31.6822 2.26444 25.3661 0.713429C23.3368 0.215395 23.2156 0.34143 23.2156 2.93963Z" fill="#FC6075"/>
<path fill-rule="evenodd" clip-rule="evenodd" d="M15.3912 0.965442C8.39788 3.14374 2.69907 9.27963 1.02397 16.4328C0.538237 18.506 0.663517 18.6349 3.16252 18.6349C5.48663 18.6349 5.87534 18.3352 6.28571 16.2309C6.89579 13.108 12.9271 6.95407 16.0713 6.24705C18.2366 5.76027 18.5239 5.37509 18.5239 2.95694C18.5239 0.0558635 18.4542 0.0118144 15.3912 0.965442Z" fill="#FF733B"/>
<path fill-rule="evenodd" clip-rule="evenodd" d="M34.5799 25.9504C33.8898 29.1701 27.8798 35.3465 24.8301 35.9708C22.775 36.3914 22.4827 36.7891 22.4827 39.169C22.4827 41.728 22.6083 41.8563 24.6329 41.3592C31.928 39.568 38.2262 33.1177 39.9811 25.6411C40.469 23.5634 40.3462 23.439 37.8089 23.439C35.4299 23.4393 35.0565 23.7299 34.5799 25.9504Z" fill="#FF733B"/>
<path fill-rule="evenodd" clip-rule="evenodd" d="M27.6509 25.3842C26.8575 26.8934 25.1934 28.5592 23.9541 29.0845C21.2858 30.2163 20.8152 33.0492 23.2953 33.0492C25.4295 33.0492 30.9032 27.5949 31.5327 24.8414C32.2985 21.4925 29.4909 21.8847 27.6509 25.3842Z" fill="#FF733B"/>
<path fill-rule="evenodd" clip-rule="evenodd" d="M22.6786 23.9522C20.6399 26.2064 20.5259 26.6417 21.9709 26.6417C23.2227 26.6417 25.6112 24.1049 25.6112 22.7751C25.6112 21.3842 24.6529 21.7694 22.6786 23.9522Z" fill="#FF733B"/>
</svg>
