<svg width="140" height="34" viewBox="0 0 140 34" fill="none" xmlns="http://www.w3.org/2000/svg">
<path d="M4.89481 0.548129C4.89481 0.538713 4.89272 0.530343 4.89167 0.521973C4.89167 0.541851 4.89062 0.561731 4.89062 0.581609C4.89167 0.570101 4.89481 0.559637 4.89481 0.548129Z" fill="url(#paint0_linear_5147_452138)"/>
<path d="M30.1893 18.6737C29.1053 18.4498 28.4629 18.9886 28.2338 20.0496C28.1574 20.4032 28.0831 20.7589 27.9973 21.1105C27.4449 23.3726 26.3086 25.3113 24.646 26.9205C22.9751 28.5371 20.4358 28.2912 19.0505 26.4382C17.9111 24.9138 18.0963 23.653 19.717 21.8963C21.8818 19.5505 21.8022 16.0768 19.537 13.9644C17.2174 11.8017 13.6349 11.9502 11.4952 14.2992C9.48428 16.5068 9.59101 19.857 11.9326 22.1181C14.2051 24.3132 12.5771 27.1549 10.5766 27.768C9.14843 28.2054 7.80395 27.9867 6.68233 26.8693C4.75506 24.9493 3.59682 22.6433 3.11762 19.9774C2.93138 18.9415 2.27327 18.4885 1.26674 18.6507C0.288461 18.8087 -0.0630908 19.5044 0.00910301 20.4398C0.0373528 20.8008 0.0844345 21.1639 0.171276 21.5144C1.20501 25.7006 3.44721 29.0319 7.13746 31.3348C13.7835 35.6476 23.2995 34.1839 27.8466 28.1499C29.8304 26.0281 30.8558 23.4479 31.3758 20.6459C31.5505 19.6991 31.2377 18.8903 30.1893 18.6737Z" fill="url(#paint1_linear_5147_452138)"/>
<path d="M30.5402 14.4773C30.3696 14.3894 30.2389 14.2262 30.2002 14.0222C29.948 12.7123 29.517 11.4421 28.9206 10.2484C28.3159 9.03996 27.549 7.92361 26.6398 6.93387C25.49 5.68047 24.1351 4.64679 22.6118 3.86106C21.894 3.49069 21.1439 3.17996 20.3801 2.93514C20.0391 2.82423 19.8507 2.46014 19.9595 2.11802C20.0694 1.7759 20.4345 1.58862 20.7767 1.69743C21.6084 1.96422 22.4255 2.30321 23.2071 2.70601C24.8664 3.56183 26.3437 4.68864 27.5971 6.05503C28.5879 7.13475 29.4238 8.35048 30.0819 9.6677C30.7316 10.9671 31.2004 12.3492 31.4755 13.7763C31.5435 14.1289 31.3123 14.4689 30.9608 14.5369C30.8112 14.5672 30.6647 14.5421 30.5402 14.4773Z" fill="url(#paint2_linear_5147_452138)"/>
<path d="M0.679771 15.0826C0.439136 14.9581 0.292661 14.6902 0.335557 14.4078C0.591886 12.7128 1.12338 11.0755 1.91538 9.54064C2.57242 8.26631 3.39581 7.09139 4.36254 6.04828C5.59815 4.71537 7.0451 3.61263 8.66678 2.7725C10.0269 2.06629 11.4801 1.562 12.9857 1.27115C13.3382 1.20314 13.6793 1.43436 13.7463 1.7859C13.8143 2.13848 13.5841 2.47851 13.2315 2.54651C11.8484 2.81331 10.5144 3.27679 9.26523 3.92546C7.77747 4.69759 6.44979 5.70825 5.31671 6.93131C4.4295 7.88862 3.67411 8.96625 3.07148 10.1359C2.34434 11.5442 1.85679 13.0466 1.62139 14.6013C1.56803 14.956 1.23637 15.1998 0.881695 15.1464C0.808458 15.1359 0.740453 15.114 0.679771 15.0826Z" fill="url(#paint3_linear_5147_452138)"/>
<path d="M7.34883 13.0923C7.02973 12.9281 6.90522 12.5357 7.06948 12.2166C7.43148 11.5136 7.87613 10.8565 8.38879 10.2633C8.88785 9.68578 9.45387 9.1658 10.0732 8.71592C10.8747 8.13421 11.7577 7.67491 12.6962 7.35162C13.5363 7.06181 14.411 6.88395 15.2961 6.82327C15.6539 6.79921 15.9636 7.06913 15.9887 7.42695C16.0128 7.78476 15.7428 8.09445 15.385 8.11956C14.6139 8.17187 13.8523 8.32672 13.1209 8.57886C12.3028 8.86135 11.5348 9.26101 10.837 9.76739C10.2992 10.1576 9.80645 10.6107 9.37331 11.1118C8.92761 11.6276 8.54154 12.1999 8.22558 12.812C8.05923 13.1321 7.66793 13.2566 7.34883 13.0923Z" fill="url(#paint4_linear_5147_452138)"/>
<path d="M24.8837 18.9496C24.6388 18.823 24.4924 18.5489 24.5415 18.2632C24.6524 17.6167 24.6891 16.9554 24.6493 16.2984C24.6127 15.6822 24.5112 15.068 24.3459 14.4727C24.1984 13.9391 23.9996 13.4181 23.7537 12.9243C23.5068 12.4242 23.2107 11.9481 22.8749 11.5066C22.4459 10.9448 21.95 10.4363 21.3986 9.9948C20.4329 9.22267 19.2831 8.65143 18.0831 8.35011C17.7368 8.26432 17.5244 7.90964 17.6112 7.56124C17.6991 7.21284 18.0517 7.00255 18.4001 7.08939C19.7801 7.43569 21.0994 8.09169 22.2105 8.9789C22.8445 9.48633 23.4158 10.0712 23.9096 10.7178C24.2957 11.2241 24.6357 11.7724 24.9192 12.3457C25.2007 12.9138 25.4288 13.5123 25.5982 14.1243C25.7876 14.8075 25.9058 15.5137 25.9466 16.221C25.9906 16.9764 25.9487 17.737 25.8221 18.4809C25.7615 18.8345 25.4256 19.072 25.072 19.0124C25.005 19.0019 24.9412 18.9799 24.8837 18.9496Z" fill="url(#paint5_linear_5147_452138)"/>
<path d="M21.8757 5.32661C20.7437 4.74281 19.5384 4.33059 18.2955 4.10251C17.1938 3.90058 16.067 3.84409 14.9454 3.93406C14.1147 4.00102 13.2861 4.14959 12.4836 4.37453C11.769 4.57436 11.0681 4.83802 10.3995 5.15712C9.65459 5.51179 8.9421 5.93971 8.28087 6.4283C7.59768 6.93259 6.96366 7.50698 6.3945 8.13577C6.08795 8.47475 5.79605 8.83465 5.52612 9.20607C5.1432 9.73338 4.79584 10.2973 4.49557 10.8811C3.9599 11.92 3.56756 13.0228 3.3311 14.1579C3.20346 14.7689 3.1229 15.3935 3.08628 16.0192C3.08419 16.0558 3.08315 16.0924 3.08105 16.1291C3.09675 16.4806 3.3876 16.7589 3.74228 16.7526C4.09172 16.7474 4.37107 16.467 4.38258 16.1217C4.38258 16.1113 4.38572 16.1008 4.38572 16.0893C4.38572 16.0872 4.38467 16.0851 4.38467 16.083C4.41815 15.5243 4.49034 14.9677 4.60438 14.4226C4.81677 13.4025 5.16935 12.4107 5.65167 11.4764C5.92264 10.9512 6.23442 10.4438 6.57968 9.96983C6.82241 9.63608 7.08502 9.31279 7.36018 9.00833C7.87179 8.44336 8.442 7.92757 9.05614 7.47454C9.6504 7.03512 10.2918 6.65115 10.9624 6.331C11.565 6.04433 12.1959 5.80683 12.8383 5.62688C13.5613 5.42391 14.3062 5.29104 15.0542 5.23035C16.0628 5.14875 17.0756 5.20001 18.0653 5.38206C19.1827 5.58712 20.2656 5.95749 21.2846 6.4827C21.6037 6.64696 21.995 6.52246 22.1603 6.20336C22.3204 5.88321 22.1948 5.49087 21.8757 5.32661Z" fill="url(#paint6_linear_5147_452138)"/>
<path d="M28.7486 15.1193C28.623 14.1839 28.3949 13.2601 28.0685 12.3729C27.7683 11.5558 27.3853 10.7659 26.9292 10.0272C26.5169 9.35972 26.043 8.72883 25.5188 8.15026C25.2782 7.88452 24.867 7.86359 24.6013 8.10423C24.3355 8.34486 24.3146 8.75604 24.5563 9.02178C25.0271 9.54176 25.4529 10.1099 25.8233 10.7094C26.2334 11.3748 26.5787 12.0852 26.8486 12.8207C27.1416 13.619 27.3477 14.4507 27.4607 15.2929C27.5245 15.7648 27.5548 16.2408 27.5601 16.7158L27.5642 16.7169C27.5716 16.8906 27.6458 17.0454 27.763 17.1574C27.7662 17.1605 27.7703 17.1626 27.7735 17.1657C27.7996 17.1898 27.8279 17.2128 27.8572 17.2327C27.8676 17.24 27.8792 17.2442 27.8896 17.2505C27.9147 17.2651 27.9388 17.2787 27.9649 17.2902C27.9848 17.2986 28.0068 17.3028 28.0277 17.3091C28.0465 17.3143 28.0654 17.3227 28.0853 17.3258C28.1271 17.3342 28.17 17.3384 28.215 17.3384C28.5624 17.3363 28.8417 17.0632 28.8584 16.7211C28.8584 16.6991 28.8595 16.6782 28.8584 16.6562C28.8522 16.1425 28.8166 15.6288 28.7486 15.1193Z" fill="url(#paint7_linear_5147_452138)"/>
<path d="M6.74216 17.2849C7.00581 17.2064 7.20041 16.9637 7.20564 16.6728C7.21611 16.0168 7.3019 15.3608 7.46197 14.7216C7.61159 14.1231 7.82502 13.5383 8.09704 12.9827C8.34081 12.4858 8.63272 12.0108 8.96437 11.5693C9.29917 11.1236 9.67791 10.7092 10.0901 10.3389C10.6153 9.86493 11.1971 9.45689 11.8196 9.12523C12.9118 8.54457 14.1475 8.19617 15.382 8.12084C15.7388 8.10096 16.0129 7.79128 15.9909 7.43242C15.969 7.0746 15.6614 6.80153 15.3025 6.8235C13.8828 6.9093 12.464 7.31001 11.2096 7.97751C10.4929 8.35939 9.82334 8.8281 9.21966 9.37319C8.74676 9.80006 8.31152 10.2751 7.9265 10.7877C7.54567 11.2941 7.21087 11.8402 6.93153 12.4104C6.6187 13.0476 6.37388 13.7193 6.2023 14.4067C6.01921 15.1411 5.91981 15.8955 5.9083 16.6509C5.90203 17.0097 6.1887 17.3048 6.54756 17.311C6.61347 17.3131 6.67938 17.3037 6.74216 17.2849Z" fill="url(#paint8_linear_5147_452138)"/>
<path d="M16.1558 21.2965V21.0737C17.3674 20.8331 18.2807 19.7649 18.2807 18.4822C18.2807 17.0227 17.0974 15.8394 15.6379 15.8394C14.1784 15.8394 12.9951 17.0227 12.9951 18.4822C12.9951 19.7638 13.9085 20.8331 15.12 21.0737V21.2965C15.12 21.398 15.2016 21.4796 15.3031 21.4796H15.3513V22.7571H14.69L15.1933 23.8808L14.9411 28.5303L15.6965 29.3296L16.4373 28.4706L16.1108 23.8713L16.5858 22.7571H15.9905V21.4775C16.0826 21.4692 16.1558 21.3918 16.1558 21.2965Z" fill="white"/>
<path d="M14.4449 17.3891C14.4711 17.3577 14.4983 17.3274 14.5035 17.2834C14.5109 17.205 14.4345 17.1474 14.3591 17.1767C14.3257 17.1893 14.3006 17.2133 14.2786 17.2405C13.768 17.8662 13.6571 18.5525 13.9637 19.3016C14.0118 19.4209 14.0693 19.4586 14.1373 19.4314C14.2106 19.4021 14.2169 19.3393 14.1656 19.2116C13.8978 18.5494 13.9867 17.9405 14.4449 17.3891Z" fill="url(#paint9_linear_5147_452138)"/>
<path d="M15.4826 16.5855C15.289 16.6117 15.1018 16.6598 14.9249 16.7414C14.8873 16.7581 14.8507 16.7759 14.8276 16.8115C14.8036 16.8481 14.8004 16.8879 14.8224 16.9266C14.8433 16.9622 14.8758 16.9778 14.9239 16.9757C14.9385 16.9705 14.9605 16.9663 14.9804 16.9569C15.152 16.8764 15.3319 16.8282 15.5192 16.801C15.5924 16.7906 15.6458 16.7592 15.6406 16.6755C15.6353 16.6085 15.5736 16.5729 15.4826 16.5855Z" fill="url(#paint10_linear_5147_452138)"/>
<path d="M44.9267 25.2405C43.0978 25.2405 41.5504 24.7853 40.2845 23.8772C39.0185 22.9691 38.1418 21.8538 37.6553 20.5334L41.1612 19.4516C41.4751 20.2195 41.9731 20.8368 42.6657 21.3129C43.3583 21.7889 44.1911 22.0275 45.1652 22.0275C45.8902 22.0275 46.474 21.8862 46.9176 21.5943C47.3613 21.3024 47.5883 20.9561 47.5883 20.5554C47.5883 19.9172 47.0369 19.4192 45.9216 19.0624L41.9292 17.8289C40.8474 17.493 39.9821 16.9636 39.3324 16.2491C38.6837 15.5345 38.3699 14.6912 38.3803 13.7172C38.3699 12.4292 38.9108 11.337 40.003 10.4382C41.0964 9.54056 42.4701 9.08545 44.1252 9.08545C45.7595 9.08545 47.2096 9.47465 48.464 10.2646C49.7195 11.0545 50.5628 12.017 50.9854 13.1532L47.5988 14.1482C47.2849 13.5968 46.8193 13.1532 46.2031 12.8069C45.5868 12.4606 44.9047 12.2869 44.1577 12.2869C43.5414 12.2869 43.0434 12.4062 42.6647 12.6437C42.2859 12.8823 42.1018 13.1846 42.1018 13.5529C42.1018 14.0833 42.4481 14.4506 43.1407 14.6567L47.0463 15.9007C48.3991 16.3223 49.4485 16.8527 50.1851 17.491C50.9206 18.1292 51.2888 19.0488 51.2888 20.2499C51.2888 21.6571 50.705 22.8247 49.5259 23.7663C48.3458 24.7079 46.8099 25.1725 44.9162 25.1725L44.9267 25.2405Z" fill="white"/>
<path d="M70.7682 14.524C71.58 15.3788 71.9912 16.6018 71.9912 18.1921V24.8567H68.4528V18.982C68.4528 17.3478 67.8575 16.5254 66.6564 16.5254C65.3476 16.5254 64.6874 17.4346 64.6769 19.2519V24.8567H61.1375V18.982C61.1375 17.3478 60.5422 16.5254 59.3411 16.5254C58.0323 16.5254 57.3721 17.4346 57.3721 19.2519V24.8567H53.8232V13.5614H57.3721V14.6652C58.184 13.7236 59.2229 13.2476 60.4888 13.2476C61.9818 13.2476 63.0741 13.7456 63.7667 14.7521C64.7083 13.7456 65.9523 13.2476 67.4892 13.2476C68.864 13.2465 69.9563 13.6692 70.7682 14.524Z" fill="white"/>
<path d="M79.8985 25.1716C78.3616 25.1716 77.0632 24.5982 76.0034 23.462C74.9435 22.3258 74.4131 20.9081 74.4131 19.209C74.4131 17.511 74.9435 16.0933 76.0034 14.9571C77.0632 13.8209 78.3616 13.2476 79.8985 13.2476C81.2409 13.2476 82.3227 13.7016 83.1555 14.6003V13.5614H86.7043V24.8577H83.1555V23.8188C82.3007 24.7165 81.2189 25.1716 79.909 25.1716H79.8985ZM80.5367 22.0339C81.3266 22.0339 81.9764 21.7744 82.4848 21.244C82.9933 20.7135 83.2528 20.0324 83.2528 19.1986C83.2528 18.3658 82.9933 17.6941 82.4848 17.1751C81.9764 16.6562 81.3277 16.3957 80.5482 16.3957C79.7803 16.3957 79.1526 16.6552 78.6545 17.1751C78.1565 17.6941 77.9075 18.3647 77.9075 19.1986C77.9075 20.0429 78.1565 20.724 78.6545 21.244C79.1526 21.7629 79.7793 22.0234 80.5482 22.0234L80.5367 22.0339Z" fill="white"/>
<path d="M93.4573 15.0921C93.7932 14.4748 94.2692 14.0103 94.875 13.7069C95.4808 13.4035 96.1838 13.3062 96.9957 13.4035V16.7253C95.7842 16.5192 94.897 16.6929 94.3226 17.2442C93.7492 17.7967 93.4678 18.7697 93.4678 20.1654V24.8829H89.9189V13.5887H93.4678V15.1141L93.4573 15.0921Z" fill="white"/>
<path d="M107.191 24.4944C106.261 24.8627 105.341 25.0458 104.42 25.0458C103.09 25.0458 102.095 24.667 101.424 23.9096C100.753 23.1521 100.417 22.1142 100.417 20.7834V16.6612H98.665V13.5664H100.417V10.0176H103.966V13.5664H107.007V16.6612H103.966V20.7834C103.966 21.5733 104.356 21.9625 105.135 21.9625C105.568 21.9625 105.968 21.8652 106.336 21.6706L107.191 24.4944Z" fill="white"/>
<path d="M122.968 9.3457V24.8615H119.289V18.6395H113.176V24.8615H109.497V9.3457H113.176V15.3072H119.289V9.3457H122.968Z" fill="url(#paint11_linear_5147_452138)"/>
<path d="M132.458 19.7652H129.797V24.8615H126.161V9.3457H133.919C135.553 9.3457 136.883 9.8751 137.901 10.936C138.918 11.9969 139.426 13.2084 139.426 14.5832C139.426 15.6001 139.145 16.5417 138.594 17.3965C138.041 18.2513 137.263 18.8895 136.256 19.3007L140 24.8625H135.77L132.458 19.7652ZM129.785 16.5407H133.638C134.276 16.5407 134.806 16.3461 135.217 15.9674C135.629 15.5886 135.834 15.123 135.834 14.5717C135.834 14.0423 135.639 13.5872 135.238 13.2084C134.838 12.8297 134.362 12.6351 133.8 12.6351H129.796L129.785 16.5407Z" fill="url(#paint12_linear_5147_452138)"/>
<defs>
<linearGradient id="paint0_linear_5147_452138" x1="3.69063" y1="0.551446" x2="4.8944" y2="0.551446" gradientUnits="userSpaceOnUse">
<stop stop-color="#2DA17C"/>
<stop offset="1" stop-color="#557ABC"/>
</linearGradient>
<linearGradient id="paint1_linear_5147_452138" x1="17.6677" y1="15.2632" x2="10.5723" y2="34.5308" gradientUnits="userSpaceOnUse">
<stop stop-color="#E12751"/>
<stop offset="1" stop-color="#F58229"/>
</linearGradient>
<linearGradient id="paint2_linear_5147_452138" x1="19.9275" y1="8.10856" x2="31.4873" y2="8.10856" gradientUnits="userSpaceOnUse">
<stop stop-color="#E12751"/>
<stop offset="1" stop-color="#F58229"/>
</linearGradient>
<linearGradient id="paint3_linear_5147_452138" x1="0.327752" y1="8.20718" x2="13.7576" y2="8.20718" gradientUnits="userSpaceOnUse">
<stop stop-color="#E12751"/>
<stop offset="1" stop-color="#F58229"/>
</linearGradient>
<linearGradient id="paint4_linear_5147_452138" x1="6.99692" y1="9.99353" x2="15.9895" y2="9.99353" gradientUnits="userSpaceOnUse">
<stop stop-color="#E12751"/>
<stop offset="1" stop-color="#F58229"/>
</linearGradient>
<linearGradient id="paint5_linear_5147_452138" x1="17.5926" y1="13.0464" x2="25.9642" y2="13.0464" gradientUnits="userSpaceOnUse">
<stop stop-color="#E12751"/>
<stop offset="1" stop-color="#F58229"/>
</linearGradient>
<linearGradient id="paint6_linear_5147_452138" x1="3.07819" y1="10.322" x2="22.2281" y2="10.322" gradientUnits="userSpaceOnUse">
<stop stop-color="#E12751"/>
<stop offset="1" stop-color="#F58229"/>
</linearGradient>
<linearGradient id="paint7_linear_5147_452138" x1="24.389" y1="12.637" x2="28.8598" y2="12.637" gradientUnits="userSpaceOnUse">
<stop stop-color="#E12751"/>
<stop offset="1" stop-color="#F58229"/>
</linearGradient>
<linearGradient id="paint8_linear_5147_452138" x1="14.9983" y1="12.8261" x2="6.77071" y2="11.2816" gradientUnits="userSpaceOnUse">
<stop stop-color="#E12751"/>
<stop offset="1" stop-color="#F58229"/>
</linearGradient>
<linearGradient id="paint9_linear_5147_452138" x1="14.7186" y1="15.9837" x2="13.5148" y2="20.6831" gradientUnits="userSpaceOnUse">
<stop stop-color="#E12751"/>
<stop offset="1" stop-color="#F58229"/>
</linearGradient>
<linearGradient id="paint10_linear_5147_452138" x1="16.5593" y1="15.5823" x2="13.4925" y2="18.3352" gradientUnits="userSpaceOnUse">
<stop stop-color="#E12751"/>
<stop offset="1" stop-color="#F58229"/>
</linearGradient>
<linearGradient id="paint11_linear_5147_452138" x1="122.392" y1="6.23479" x2="112.803" y2="23.1556" gradientUnits="userSpaceOnUse">
<stop stop-color="#E12751"/>
<stop offset="1" stop-color="#F58229"/>
</linearGradient>
<linearGradient id="paint12_linear_5147_452138" x1="139.8" y1="9.69582" x2="127.391" y2="23.3735" gradientUnits="userSpaceOnUse">
<stop stop-color="#E12751"/>
<stop offset="1" stop-color="#F58229"/>
</linearGradient>
</defs>
</svg>
